<mxfile host="app.diagrams.net" modified="2023-06-20T07:43:48.385Z" agent="Mozilla/5.0 (Windows NT 10.0; Win64; x64) AppleWebKit/537.36 (KHTML, like Gecko) Chrome/114.0.0.0 Safari/537.36 Edg/114.0.1823.51" etag="1WT-KWhDx0WvrSDaUR_s" version="21.5.0" type="github">
  <diagram name="Seite-1" id="nGbcTih9HJXoeC_Z4p0X">
    <mxGraphModel dx="2206" dy="788" grid="1" gridSize="10" guides="1" tooltips="1" connect="1" arrows="1" fold="1" page="1" pageScale="1" pageWidth="827" pageHeight="1169" math="0" shadow="0">
      <root>
        <mxCell id="0" />
        <mxCell id="1" parent="0" />
        <mxCell id="FDLiloWbAIKrmna8ACbN-12" value="" style="edgeStyle=orthogonalEdgeStyle;rounded=0;orthogonalLoop=1;jettySize=auto;html=1;" edge="1" parent="1" source="FDLiloWbAIKrmna8ACbN-1" target="FDLiloWbAIKrmna8ACbN-11">
          <mxGeometry relative="1" as="geometry" />
        </mxCell>
        <mxCell id="FDLiloWbAIKrmna8ACbN-1" value="CashFlowDetail" style="rounded=0;whiteSpace=wrap;html=1;" vertex="1" parent="1">
          <mxGeometry x="80" y="120" width="120" height="60" as="geometry" />
        </mxCell>
        <mxCell id="FDLiloWbAIKrmna8ACbN-3" value="FRONTEND" style="text;html=1;strokeColor=none;fillColor=none;align=center;verticalAlign=middle;whiteSpace=wrap;rounded=0;" vertex="1" parent="1">
          <mxGeometry x="-120" y="135" width="90" height="30" as="geometry" />
        </mxCell>
        <mxCell id="FDLiloWbAIKrmna8ACbN-6" value="" style="edgeStyle=orthogonalEdgeStyle;rounded=0;orthogonalLoop=1;jettySize=auto;html=1;" edge="1" parent="1" source="FDLiloWbAIKrmna8ACbN-4" target="FDLiloWbAIKrmna8ACbN-1">
          <mxGeometry relative="1" as="geometry" />
        </mxCell>
        <mxCell id="FDLiloWbAIKrmna8ACbN-4" value="Controller" style="rounded=0;whiteSpace=wrap;html=1;" vertex="1" parent="1">
          <mxGeometry x="80" y="220" width="120" height="60" as="geometry" />
        </mxCell>
        <mxCell id="FDLiloWbAIKrmna8ACbN-7" value="" style="edgeStyle=orthogonalEdgeStyle;rounded=0;orthogonalLoop=1;jettySize=auto;html=1;" edge="1" parent="1" source="FDLiloWbAIKrmna8ACbN-5" target="FDLiloWbAIKrmna8ACbN-4">
          <mxGeometry relative="1" as="geometry" />
        </mxCell>
        <mxCell id="FDLiloWbAIKrmna8ACbN-5" value="DAO/DTO" style="rounded=0;whiteSpace=wrap;html=1;" vertex="1" parent="1">
          <mxGeometry x="10" y="340" width="120" height="60" as="geometry" />
        </mxCell>
        <mxCell id="FDLiloWbAIKrmna8ACbN-9" style="edgeStyle=orthogonalEdgeStyle;rounded=0;orthogonalLoop=1;jettySize=auto;html=1;entryX=0.5;entryY=1;entryDx=0;entryDy=0;" edge="1" parent="1" source="FDLiloWbAIKrmna8ACbN-8" target="FDLiloWbAIKrmna8ACbN-4">
          <mxGeometry relative="1" as="geometry">
            <Array as="points">
              <mxPoint x="220" y="310" />
              <mxPoint x="140" y="310" />
            </Array>
          </mxGeometry>
        </mxCell>
        <mxCell id="FDLiloWbAIKrmna8ACbN-8" value="Reposetory" style="rounded=0;whiteSpace=wrap;html=1;" vertex="1" parent="1">
          <mxGeometry x="160" y="340" width="120" height="60" as="geometry" />
        </mxCell>
        <mxCell id="FDLiloWbAIKrmna8ACbN-10" value="BACKEND" style="text;html=1;strokeColor=none;fillColor=none;align=center;verticalAlign=middle;whiteSpace=wrap;rounded=0;" vertex="1" parent="1">
          <mxGeometry x="-105" y="280" width="60" height="30" as="geometry" />
        </mxCell>
        <mxCell id="FDLiloWbAIKrmna8ACbN-11" value="Cashflow" style="rounded=0;whiteSpace=wrap;html=1;" vertex="1" parent="1">
          <mxGeometry x="80" y="20" width="120" height="60" as="geometry" />
        </mxCell>
        <mxCell id="FDLiloWbAIKrmna8ACbN-13" value="DATABASE" style="text;html=1;strokeColor=none;fillColor=none;align=center;verticalAlign=middle;whiteSpace=wrap;rounded=0;" vertex="1" parent="1">
          <mxGeometry x="-105" y="490" width="60" height="30" as="geometry" />
        </mxCell>
        <mxCell id="FDLiloWbAIKrmna8ACbN-15" style="edgeStyle=orthogonalEdgeStyle;rounded=0;orthogonalLoop=1;jettySize=auto;html=1;entryX=1;entryY=0.5;entryDx=0;entryDy=0;exitX=0.5;exitY=0;exitDx=0;exitDy=0;" edge="1" parent="1" source="FDLiloWbAIKrmna8ACbN-14" target="FDLiloWbAIKrmna8ACbN-11">
          <mxGeometry relative="1" as="geometry" />
        </mxCell>
        <mxCell id="FDLiloWbAIKrmna8ACbN-14" value="Controller" style="rounded=0;whiteSpace=wrap;html=1;" vertex="1" parent="1">
          <mxGeometry x="330" y="230" width="120" height="60" as="geometry" />
        </mxCell>
        <mxCell id="FDLiloWbAIKrmna8ACbN-17" value="" style="edgeStyle=orthogonalEdgeStyle;rounded=0;orthogonalLoop=1;jettySize=auto;html=1;" edge="1" parent="1" source="FDLiloWbAIKrmna8ACbN-16" target="FDLiloWbAIKrmna8ACbN-14">
          <mxGeometry relative="1" as="geometry" />
        </mxCell>
        <mxCell id="FDLiloWbAIKrmna8ACbN-16" value="DAO/DTO" style="rounded=0;whiteSpace=wrap;html=1;" vertex="1" parent="1">
          <mxGeometry x="294" y="340" width="120" height="60" as="geometry" />
        </mxCell>
        <mxCell id="FDLiloWbAIKrmna8ACbN-19" style="edgeStyle=orthogonalEdgeStyle;rounded=0;orthogonalLoop=1;jettySize=auto;html=1;entryX=0.5;entryY=1;entryDx=0;entryDy=0;" edge="1" parent="1" source="FDLiloWbAIKrmna8ACbN-18" target="FDLiloWbAIKrmna8ACbN-14">
          <mxGeometry relative="1" as="geometry" />
        </mxCell>
        <mxCell id="FDLiloWbAIKrmna8ACbN-18" value="Repo" style="rounded=0;whiteSpace=wrap;html=1;" vertex="1" parent="1">
          <mxGeometry x="430" y="340" width="120" height="60" as="geometry" />
        </mxCell>
        <mxCell id="FDLiloWbAIKrmna8ACbN-20" value="" style="endArrow=none;dashed=1;html=1;dashPattern=1 3;strokeWidth=2;rounded=0;" edge="1" parent="1">
          <mxGeometry width="50" height="50" relative="1" as="geometry">
            <mxPoint x="770" y="200" as="sourcePoint" />
            <mxPoint x="-80" y="200" as="targetPoint" />
          </mxGeometry>
        </mxCell>
        <mxCell id="FDLiloWbAIKrmna8ACbN-21" value="" style="endArrow=none;dashed=1;html=1;dashPattern=1 3;strokeWidth=2;rounded=0;" edge="1" parent="1">
          <mxGeometry width="50" height="50" relative="1" as="geometry">
            <mxPoint x="-80" y="440" as="sourcePoint" />
            <mxPoint x="760" y="440" as="targetPoint" />
          </mxGeometry>
        </mxCell>
      </root>
    </mxGraphModel>
  </diagram>
</mxfile>
